# xmcd
#
# Track frame offsets:
#	150
#	12979
#	25334
#	41064
#	54318
#	70199
#	83465
#	97872
#	109863
#	125771
#	136170
#	156180
#	168924
#	182401
#	194826
#	207773
#	224792
#
# Disc length: 3203 seconds
#
# Revision: 0
# Processed by: cddbd v1.5.2PL0 Copyright (c) Steve Scherf et al.
# Submitted via: EasyCDDAExtractor 16.0.6.1
#
DISCID=eb0c8111
DTITLE=Πρώτη εκτέλεση-Βασ. Δημητρίου 1
DYEAR=2000
DGENRE=Ποικίλη
TTITLE0=Διονυσίου Στράτος - Θα πάρω βόλτα την ζωή 
TTITLE1=Διονυσίου Στράτος - Τώρα σβήσανε τ' αστέρια
TTITLE2=Διονυσίου Στράτος - Σεπτέμβρη του '62
TTITLE3=Μπέλλου Σωτηρία - Ο κόσμος είναι σαν μπαξές
TTITLE4=Αλεξίου Χάρις - Ήθελα να σε ζωγραφίσω
TTITLE5=Καλατζής Γιάννης - Ω! Τι κόσμος μπαμπά
TTITLE6=Αλεξίου Χάρις - Μιά Κυριακή η καρδιά μου
TTITLE7=Μητσιάς Μανώλης-Μάνου Αφροδίτη - Καπετάνισσα κυρά
TTITLE8=Μπέλλου Σωτηρία - Το πιτσιρικάκι
TTITLE9=Διονυσίου Στράτος - Ζήσαμε και δε ζήσαμε
TTITLE10=Αλεξίου Χάρις - Έγειρα στο παραθύρι
TTITLE11=Καλατζής Γιάννης - Η μυγδαλιά
TTITLE12=Αλεξίου Χάρις - Χασάπικο
TTITLE13=Μητσιάς Μανώλης - Ένα δύο
TTITLE14=Μάνου Αφροδίτη - Μικρέ μου Αύγουστε
TTITLE15=Γαλάνη Δήμητρα - Χαλασιά μου
TTITLE16=Γαλάνη Δήμητρα - Μαρία με τα κίτρινα
EXTD=
EXTT0=
EXTT1=
EXTT2=
EXTT3=
EXTT4=
EXTT5=
EXTT6=
EXTT7=
EXTT8=
EXTT9=
EXTT10=
EXTT11=
EXTT12=
EXTT13=
EXTT14=
EXTT15=
EXTT16=
PLAYORDER=
